<svg version="1.2" xmlns="http://www.w3.org/2000/svg" viewBox="0 0 1500 1000" width="1500" height="1000">
	<title>5632614_2964636-ai</title>
	<defs>
		<clipPath clipPathUnits="userSpaceOnUse" id="cp1">
			<path d="m1321.47 859.08h-1142.94c-13.55 0-24.54-10.98-24.54-24.53v-713.97c0-13.55 10.99-24.53 24.54-24.53h1142.94c13.56 0 24.54 10.98 24.54 24.53v713.97c0 13.55-10.98 24.53-24.54 24.53z"/>
		</clipPath>
	</defs>
	<style>
		.s0 { fill: #c4c5f3 } 
		.s1 { fill: #b8b5f2 } 
		.s2 { fill: #fffffb } 
		.s3 { fill: #d2d9f5 } 
		.s4 { fill: #d5def5 } 
		.s5 { fill: #e4f3f7 } 
		.s6 { fill: #f3fff9 } 
		.s7 { fill: #bab7f2 } 
		.s8 { fill: #c0c0f3 } 
		.s9 { fill: #d9e3f6 } 
		.s10 { fill: #b1abef } 
		.s11 { opacity: .4;fill: #f3fff9 } 
		.s12 { fill: none;stroke: #e9f2f4;stroke-width: .6 } 
		.s13 { fill: #918dff } 
		.s14 { fill: #ffffff } 
		.s15 { fill: #e9f2f4 } 
	</style>
	<g id="BACKGROUND">
		<g id="&lt;Group&gt;" style="opacity: .8;mix-blend-mode: multiply">
		</g>
	</g>
	<g id="OBJECTS">
		<g id="&lt;Clip Group&gt;" clip-path="url(#cp1)">
			<g id="&lt;Group&gt;">
				<g id="&lt;Group&gt;">
				</g>
				<g id="&lt;Group&gt;">
					<g id="&lt;Group&gt;">
					</g>
				</g>
			</g>
			<g id="&lt;Group&gt;">
				<g id="&lt;Group&gt;">
					<path id="&lt;Path&gt;" class="s0" d="m936.2 553.9h9.7v4.1h-9.7z"/>
					<path id="&lt;Path&gt;" class="s0" d="m935 557.1h12.1v1.7h-12.1z"/>
					<path id="&lt;Path&gt;" class="s0" d="m931.9 558.8h18.2v4.6h-18.2z"/>
					<path id="&lt;Path&gt;" class="s0" d="m940.7 492.5h0.6l0.9 21.2h-2.3z"/>
					<path id="&lt;Compound Path&gt;" fill-rule="evenodd" class="s0" d="m943.6 513.4v41.4h-5.1v-41.4zm-2.3 39.6h0.7v-21.4h-0.7zm-1.3 0h0.6v-21.4h-0.6z"/>
				</g>
				<path id="&lt;Path&gt;" class="s0" d="m656.5 730.2v-97.3h27.9v97.3z"/>
				<path id="&lt;Path&gt;" class="s0" d="m699.1 730.2v-123h5.2v-50.9h4.6v-33.1h27.6v33.1h5.2v-49.2h1v5.6h25l67.6 31.4v186.1z"/>
				<path id="&lt;Path&gt;" class="s0" d="m327 730.2v-71.6h3v-29.7h2.7v-19.2l19.6-6.2h14.6l39.4 18.3v108.4z"/>
				<path id="&lt;Path&gt;" class="s0" d="m604.7 730.2v-106.9h18.1v106.9z"/>
				<path id="&lt;Path&gt;" class="s0" d="m583.2 730.2v-123.7h33.5v123.7z"/>
				<path id="&lt;Path&gt;" class="s0" d="m577.4 728.6h-25v-98.4h25z"/>
				<path id="&lt;Path&gt;" class="s0" d="m644.2 728.6h-43.4v-214h43.4z"/>
				<path id="&lt;Path&gt;" class="s0" d="m917.7 533.6h36.9v184.9h-36.9z"/>
				<path id="&lt;Path&gt;" class="s0" d="m934.8 730v-161.6h36.9v161.6z"/>
				<path id="&lt;Path&gt;" class="s0" d="m922.2 512.3v217.9h-97.6v-141.4h14.4v-55.8q0.2-0.3 0.4-0.6h34.4v-5.3h7.3v5.3h13.7v12.5h25.1v-32.6z"/>
				<path id="&lt;Path&gt;" class="s0" d="m405.2 730.2v-106.5l5.2 7h14.4v-28.2h0.5v28.2h3v-18.9h15.8v18.9h2.6v29.1h3v70.4z"/>
				<path id="&lt;Path&gt;" class="s0" d="m454.5 730.2v-184.9h27.9v184.9z"/>
				<path id="&lt;Path&gt;" class="s0" d="m482.2 730.2v-139.2h26.8l14.4 14.9v124.3z"/>
				<g id="&lt;Group&gt;">
					<g id="&lt;Group&gt;">
						<path id="&lt;Path&gt;" class="s1" d="m713.7 632.9v5.7h2v11.5h6.9v80.1h-35.7v-97.3z"/>
					</g>
					<g id="&lt;Group&gt;">
						<g id="&lt;Group&gt;">
							<path id="&lt;Path&gt;" class="s2" d="m646.4 566.6h-11.7v-1h11.7z"/>
							<path id="&lt;Path&gt;" class="s3" d="m649.3 584.2h-17.6v-17.6h17.6z"/>
						</g>
						<g id="&lt;Group&gt;">
							<g id="&lt;Group&gt;">
								<path id="&lt;Path&gt;" class="s4" d="m667.2 534h2.3v86.9h-2.3z"/>
								<path id="&lt;Path&gt;" class="s4" d="m672.4 534h2.3v86.9h-2.3z"/>
							</g>
							<path id="&lt;Path&gt;" class="s5" d="m680.8 656.2h-37.4v-96.9h37.4z"/>
							<path id="&lt;Path&gt;" class="s6" d="m704.7 623.3h-42v-29.2z"/>
							<path id="&lt;Path&gt;" class="s5" d="m615.8 730.2v-145.4h50.6v145.4z"/>
							<path id="&lt;Path&gt;" class="s4" d="m660.5 730.2v-109.3h46.3v109.3z"/>
						</g>
					</g>
				</g>
				<g id="&lt;Group&gt;">
					<g id="&lt;Group&gt;">
						<path id="&lt;Path&gt;" class="s1" d="m1263.9 659.1v4.5h1.6v9h5.3v62.4h-27.8v-75.9z"/>
					</g>
					<g id="&lt;Group&gt;">
						<g id="&lt;Group&gt;">
							<path id="&lt;Path&gt;" class="s2" d="m1211.4 607.4h-9.2v-0.8h9.2z"/>
							<path id="&lt;Path&gt;" class="s3" d="m1213.6 621.1h-13.6v-13.7h13.6z"/>
						</g>
						<g id="&lt;Group&gt;">
							<g id="&lt;Group&gt;">
								<path id="&lt;Path&gt;" class="s4" d="m1227.6 581.9h1.8v67.9h-1.8z"/>
								<path id="&lt;Path&gt;" class="s4" d="m1231.7 581.9h1.8v67.9h-1.8z"/>
							</g>
							<path id="&lt;Path&gt;" class="s5" d="m1238.2 677.3h-29.1v-75.6h29.1z"/>
							<path id="&lt;Path&gt;" class="s6" d="m1256.8 651.6h-32.7v-22.7z"/>
							<path id="&lt;Path&gt;" class="s5" d="m1187.6 735v-113.4h39.4v113.4z"/>
							<path id="&lt;Path&gt;" class="s4" d="m1222.4 735v-85.3h36.1v85.3z"/>
						</g>
					</g>
				</g>
				<g id="&lt;Group&gt;">
					<g id="&lt;Group&gt;">
						<path id="&lt;Path&gt;" class="s1" d="m297.2 676.6v58.4h-21.4v-48h4.1v-6.9h1.2v-3.5z"/>
					</g>
					<g id="&lt;Group&gt;">
						<g id="&lt;Group&gt;">
							<path id="&lt;Path&gt;" class="s2" d="m321.5 636.3h7v0.6h-7z"/>
							<path id="&lt;Path&gt;" class="s3" d="m319.8 636.9h10.5v10.5h-10.5z"/>
						</g>
						<g id="&lt;Group&gt;">
							<g id="&lt;Group&gt;">
								<path id="&lt;Path&gt;" class="s4" d="m309 669.5h-1.4v-52.2h1.4z"/>
								<path id="&lt;Path&gt;" class="s4" d="m305.9 669.5h-1.4v-52.2h1.4z"/>
							</g>
							<path id="&lt;Path&gt;" class="s5" d="m300.9 632.5h22.4v58.1h-22.4z"/>
							<path id="&lt;Path&gt;" class="s6" d="m311.7 653.4v17.5h-25.2z"/>
							<path id="&lt;Path&gt;" class="s5" d="m309.5 735v-87.2h30.3v87.2z"/>
							<path id="&lt;Path&gt;" class="s4" d="m285.3 735v-65.6h27.7v65.6z"/>
						</g>
					</g>
				</g>
				<g id="&lt;Group&gt;">
					<g id="&lt;Group&gt;">
						<path id="&lt;Path&gt;" class="s7" d="m770.9 578.1v-125.6h18.9v125.6z"/>
						<path id="&lt;Path&gt;" class="s4" d="m756.3 612.4v-155.2h68.7v155.2z"/>
					</g>
					<g id="&lt;Group&gt;">
						<g id="&lt;Group&gt;">
							<path id="&lt;Path&gt;" class="s6" d="m748.6 573.1h12.4v3.3h-12.4z"/>
							<path id="&lt;Path&gt;" class="s6" d="m747 575.7h15.6v1.4h-15.6z"/>
							<path id="&lt;Path&gt;" class="s7" d="m743.1 577.1h23.4v24.2h-23.4z"/>
						</g>
						<path id="&lt;Path&gt;" class="s4" d="m835.3 544.1v186.1h-53.5v-211z"/>
						<path id="&lt;Path&gt;" class="s7" d="m738 730.2v-165.3h31.9v165.3z"/>
						<g id="&lt;Group&gt;">
							<path id="&lt;Path&gt;" class="s8" d="m764.4 686.4h-2.6v-105.2h2.6z"/>
							<path id="&lt;Path&gt;" class="s8" d="m758.6 686.4h-2.6v-105.2h2.6z"/>
							<path id="&lt;Path&gt;" class="s8" d="m752.8 686.4h-2.7v-105.2h2.7z"/>
							<path id="&lt;Path&gt;" class="s8" d="m746.9 686.4h-2.6v-105.2h2.6z"/>
						</g>
						<path id="&lt;Path&gt;" class="s4" d="m800.7 581.1h-18.4v-19.6h18.4z"/>
					</g>
				</g>
				<g id="&lt;Group&gt;">
					<g id="&lt;Group&gt;">
						<path id="&lt;Path&gt;" class="s7" d="m1062.5 613.7v-96.3h14.4v96.3z"/>
						<path id="&lt;Path&gt;" class="s4" d="m1051.3 640v-119h52.6v119z"/>
					</g>
					<g id="&lt;Group&gt;">
						<g id="&lt;Group&gt;">
							<path id="&lt;Path&gt;" class="s6" d="m1045.4 609.8h9.5v2.6h-9.5z"/>
							<path id="&lt;Path&gt;" class="s6" d="m1044.1 611.8h12v1.1h-12z"/>
							<path id="&lt;Path&gt;" class="s7" d="m1041.1 612.9h18v18.6h-18z"/>
						</g>
						<path id="&lt;Path&gt;" class="s4" d="m1111.8 587.6v142.6h-41v-161.7z"/>
						<path id="&lt;Path&gt;" class="s0" d="m1037.3 730.2v-126.6h24.4v126.6z"/>
						<g id="&lt;Group&gt;">
							<path id="&lt;Path&gt;" class="s8" d="m1057.5 696.6h-2v-80.6h2z"/>
							<path id="&lt;Path&gt;" class="s8" d="m1053 696.6h-2v-80.6h2z"/>
							<path id="&lt;Path&gt;" class="s8" d="m1048.6 696.6h-2v-80.6h2z"/>
							<path id="&lt;Path&gt;" class="s8" d="m1044.1 696.6h-2v-80.6h2z"/>
						</g>
						<path id="&lt;Path&gt;" class="s4" d="m1085.3 616h-14.1v-15h14.1z"/>
					</g>
				</g>
				<path id="&lt;Path&gt;" class="s1" d="m564.8 598.6h9.8v14.5h-9.8z"/>
				<path id="&lt;Path&gt;" class="s1" d="m571.1 606.8h12.8v11h-12.8z"/>
				<g id="&lt;Group&gt;">
					<path id="&lt;Path&gt;" class="s1" d="m623.9 496h17.3v17.8h-17.3z"/>
					<g id="&lt;Group&gt;">
						<path id="&lt;Path&gt;" class="s9" d="m539.6 730.2l2-112.2h2.4v-11.5l39.7-4.1v22.6h4.7v-123.3h56.4v120.5h5.1v108z"/>
						<g id="&lt;Group&gt;">
							<path id="&lt;Path&gt;" class="s0" d="m546.1 642.3h17.2v4.7h-17.2z"/>
							<path id="&lt;Path&gt;" class="s0" d="m546.1 650.9h17.2v4.7h-17.2z"/>
							<path id="&lt;Path&gt;" class="s0" d="m546.1 659.4h17.2v4.7h-17.2z"/>
							<path id="&lt;Path&gt;" class="s0" d="m546.1 668h17.2v4.7h-17.2z"/>
							<path id="&lt;Path&gt;" class="s0" d="m546.1 676.6h17.2v4.7h-17.2z"/>
							<path id="&lt;Path&gt;" class="s0" d="m546.1 685.2h17.2v4.7h-17.2z"/>
							<path id="&lt;Path&gt;" class="s0" d="m546.1 693.7h17.2v4.7h-17.2z"/>
							<path id="&lt;Path&gt;" class="s0" d="m546.1 702.3h17.2v4.7h-17.2z"/>
							<path id="&lt;Path&gt;" class="s0" d="m546.1 710.9h17.2v4.7h-17.2z"/>
						</g>
					</g>
				</g>
				<path id="&lt;Path&gt;" class="s0" d="m1022.9 730.2v-97.3h27.9v97.3z"/>
				<path id="&lt;Path&gt;" class="s0" d="m1086.3 730.2v-94.2h4v-39h3.5v-25.4h21.2v25.4h3.9v-37.7h0.8v4.2h19.2l51.8 24.1v142.6z"/>
				<path id="&lt;Path&gt;" class="s0" d="m1010.6 728.6h-43.4v-214h43.4z"/>
				<g id="&lt;Group&gt;">
					<g id="&lt;Group&gt;">
						<path id="&lt;Path&gt;" class="s1" d="m1080.2 632.9v5.7h2v11.5h6.8v80.1h-35.6v-97.3z"/>
					</g>
					<g id="&lt;Group&gt;">
						<g id="&lt;Group&gt;">
							<path id="&lt;Path&gt;" class="s2" d="m1012.8 566.6h-11.7v-1h11.7z"/>
							<path id="&lt;Path&gt;" class="s3" d="m1015.7 584.2h-17.5v-17.6h17.5z"/>
						</g>
						<g id="&lt;Group&gt;">
							<g id="&lt;Group&gt;">
								<path id="&lt;Path&gt;" class="s4" d="m1033.6 534h2.3v86.9h-2.3z"/>
								<path id="&lt;Path&gt;" class="s4" d="m1038.8 534h2.4v86.9h-2.4z"/>
							</g>
							<path id="&lt;Path&gt;" class="s5" d="m1047.2 656.2h-37.3v-96.9h37.3z"/>
							<path id="&lt;Path&gt;" class="s6" d="m1071.1 623.3h-42v-29.2z"/>
							<path id="&lt;Path&gt;" class="s5" d="m982.3 730.2v-145.4h50.5v145.4z"/>
							<path id="&lt;Path&gt;" class="s4" d="m1027 730.2v-109.3h46.3v109.3z"/>
						</g>
					</g>
				</g>
				<g id="&lt;Group&gt;">
					<g id="&lt;Group&gt;">
						<path id="&lt;Path&gt;" class="s7" d="m1144.2 621v-64.5h9.7v64.5z"/>
						<path id="&lt;Path&gt;" class="s4" d="m1136.7 638.7v-79.7h35.3v79.7z"/>
					</g>
					<g id="&lt;Group&gt;">
						<g id="&lt;Group&gt;">
							<path id="&lt;Path&gt;" class="s6" d="m1132.8 618.5h6.4v1.7h-6.4z"/>
							<path id="&lt;Path&gt;" class="s6" d="m1132 619.8h8v0.7h-8z"/>
							<path id="&lt;Path&gt;" class="s7" d="m1129.9 620.5h12.1v12.5h-12.1z"/>
						</g>
						<path id="&lt;Path&gt;" class="s4" d="m1177.3 603.6v95.5h-27.5v-108.3z"/>
						<path id="&lt;Path&gt;" class="s4" d="m1127.3 699.1v-84.8h16.4v84.8z"/>
						<g id="&lt;Group&gt;">
							<path id="&lt;Path&gt;" class="s8" d="m1140.9 676.6h-1.3v-54h1.3z"/>
							<path id="&lt;Path&gt;" class="s8" d="m1137.9 676.6h-1.3v-54h1.3z"/>
							<path id="&lt;Path&gt;" class="s8" d="m1134.9 676.6h-1.3v-54h1.3z"/>
							<path id="&lt;Path&gt;" class="s8" d="m1131.9 676.6h-1.3v-54h1.3z"/>
						</g>
						<path id="&lt;Path&gt;" class="s4" d="m1159.6 622.6h-9.5v-10.1h9.5z"/>
					</g>
				</g>
				<g id="&lt;Group&gt;">
					<path id="&lt;Path&gt;" class="s1" d="m990.3 496h17.3v17.8h-17.3z"/>
					<g id="&lt;Group&gt;">
						<path id="&lt;Path&gt;" class="s9" d="m906 730.2l2.1-112.2h2.4v-11.5l39.7-4.1v22.6h4.6v-123.3h56.4v120.5h5.1v108z"/>
						<g id="&lt;Group&gt;">
							<path id="&lt;Path&gt;" class="s0" d="m912.5 642.3h17.2v4.7h-17.2z"/>
							<path id="&lt;Path&gt;" class="s0" d="m912.5 650.9h17.2v4.7h-17.2z"/>
							<path id="&lt;Path&gt;" class="s0" d="m912.5 659.4h17.2v4.7h-17.2z"/>
							<path id="&lt;Path&gt;" class="s0" d="m912.5 668h17.2v4.7h-17.2z"/>
							<path id="&lt;Path&gt;" class="s0" d="m912.5 676.6h17.2v4.7h-17.2z"/>
							<path id="&lt;Path&gt;" class="s0" d="m912.5 685.2h17.2v4.7h-17.2z"/>
							<path id="&lt;Path&gt;" class="s0" d="m912.5 693.7h17.2v4.7h-17.2z"/>
							<path id="&lt;Path&gt;" class="s0" d="m912.5 702.3h17.2v4.7h-17.2z"/>
							<path id="&lt;Path&gt;" class="s0" d="m912.5 710.9h17.2v4.7h-17.2z"/>
						</g>
					</g>
				</g>
				<g id="&lt;Group&gt;">
					<path id="&lt;Path&gt;" class="s4" d="m885.3 730v-86.2h37.5v86.2z"/>
				</g>
				<path id="&lt;Compound Path&gt;" fill-rule="evenodd" class="s3" d="m850.6 594.1v-85.3l12.8-15.6h22.2v-4.8h1.8v-0.8h0.7v-1.3h1.3v-10h0.9l0.5-8.7h0.3l0.5 8.7h0.9v10h1.3v1.3h0.7v0.8h1.8v4.8h8v100.9zm40.2-117.1h-0.4v8.9h0.4zm0.8 0h-0.4v9h0.4z"/>
				<g id="&lt;Group&gt;">
					<path id="&lt;Path&gt;" class="s7" d="m873 669.4h-47.1v-116.4h47.1z"/>
				</g>
				<g id="&lt;Group&gt;">
					<path id="&lt;Path&gt;" class="s6" d="m459.8 611.3h-7.2v-1.9h7.2z"/>
					<path id="&lt;Path&gt;" class="s6" d="m460.7 611.8h-9v-0.9h9z"/>
					<path id="&lt;Path&gt;" class="s7" d="m462.9 625.6h-13.4v-13.8h13.4z"/>
				</g>
				<path id="&lt;Path&gt;" class="s0" d="m431.5 730.2v-94.6h18.2v94.6z"/>
				<g id="&lt;Group&gt;">
					<path id="&lt;Path&gt;" class="s8" d="m434.6 634.3h1.5v60.2h-1.5z"/>
					<path id="&lt;Path&gt;" class="s8" d="m438 634.3h1.5v60.2h-1.5z"/>
					<path id="&lt;Path&gt;" class="s8" d="m441.3 634.3h1.5v60.2h-1.5z"/>
					<path id="&lt;Path&gt;" class="s8" d="m444.6 634.3h1.5v60.2h-1.5z"/>
				</g>
				<path id="&lt;Path&gt;" class="s1" d="m432.9 568.5h32.9v161.7h-32.9z"/>
				<path id="&lt;Path&gt;" class="s6" d="m409.1 628.1v57.2h-19.9z"/>
				<path id="&lt;Path&gt;" class="s1" d="m380.6 563.6h24.5v89.1h-24.5z"/>
				<g id="&lt;Group&gt;">
					<path id="&lt;Path&gt;" class="s2" d="m407 620.5h11.4v1h-11.4z"/>
				</g>
				<g id="&lt;Group&gt;">
					<path id="&lt;Path&gt;" class="s1" d="m372.9 729.4v-141.1h2.3v141.1z"/>
					<path id="&lt;Path&gt;" class="s1" d="m378 729.4v-141.1h2.3v141.1z"/>
					<path id="&lt;Path&gt;" class="s1" d="m383.1 729.4v-70.2h2.3v70.2z"/>
					<path id="&lt;Path&gt;" class="s1" d="m388.3 729.4v-70.2h2.3v70.2z"/>
				</g>
				<path id="&lt;Path&gt;" class="s4" d="m427.7 589.1h10.5v11.2h-10.5z"/>
				<path id="&lt;Path&gt;" class="s1" d="m380.9 730.2v-74.3h15.4v74.3z"/>
				<g id="&lt;Group&gt;">
					<g id="&lt;Group&gt;">
						<g id="&lt;Group&gt;">
							<path id="&lt;Path&gt;" class="s3" d="m490.8 531.5h36.4v3.2h-36.4z"/>
							<path id="&lt;Path&gt;" class="s3" d="m490.8 537.4h36.4v3.2h-36.4z"/>
							<path id="&lt;Path&gt;" class="s3" d="m490.8 543.2h36.4v3.2h-36.4z"/>
							<path id="&lt;Path&gt;" class="s3" d="m490.8 549.1h36.4v3.2h-36.4z"/>
							<path id="&lt;Path&gt;" class="s3" d="m490.8 554.9h36.4v3.2h-36.4z"/>
							<path id="&lt;Path&gt;" class="s3" d="m490.8 560.8h36.4v3.2h-36.4z"/>
							<path id="&lt;Path&gt;" class="s3" d="m490.8 566.6h36.4v3.2h-36.4z"/>
							<path id="&lt;Path&gt;" class="s3" d="m490.8 572.5h36.4v3.2h-36.4z"/>
							<path id="&lt;Path&gt;" class="s3" d="m490.8 578.3h36.4v3.2h-36.4z"/>
						</g>
						<path id="&lt;Path&gt;" class="s3" d="m458.5 520.8l65.7 6.9-0.6 202.5h-65.1z"/>
						<path id="&lt;Path&gt;" class="s10" d="m458.5 520.8l13.9 6.4-0.7 203h-13.2z"/>
					</g>
					<g id="&lt;Group&gt;">
						<path id="&lt;Path&gt;" class="s4" d="m482.2 591h26.8l14.4 14.9z"/>
						<path id="&lt;Path&gt;" class="s11" d="m499.2 730.2v-101h1.9v101z"/>
						<path id="&lt;Path&gt;" class="s11" d="m503.5 730.2v-101h2v101z"/>
						<path id="&lt;Path&gt;" class="s11" d="m507.9 730.2v-101h2v101z"/>
						<path id="&lt;Path&gt;" class="s11" d="m512.3 730.2v-101h2v101z"/>
					</g>
				</g>
				<path id="&lt;Path&gt;" class="s5" d="m560.8 620.5h31.7v14.5h-31.7z"/>
				<path id="&lt;Path&gt;" class="s5" d="m922.2 544.9v185.3h-66.1v-185.3z"/>
				<path id="&lt;Path&gt;" class="s4" d="m908.2 581.5v148.1h-40v-148.1z"/>
				<path id="&lt;Path&gt;" class="s9" d="m442.2 599.2l2.7 15.8v115.2h-85.4v-166.9h7.4v24.9h3.8v-9.6h7.1v-8.5h3.8v8.5h18.1v43.3h10.9v29.6h10.2v26.5h3.5v-55.5l3.9-23.7z"/>
				<path id="&lt;Path&gt;" class="s5" d="m474.7 632.7h16.1v97.5h-16.1z"/>
				<path id="&lt;Path&gt;" class="s5" d="m522.6 605.1h12.1v125.1h-12.1z"/>
			</g>
			<g id="&lt;Group&gt;">
				<g id="&lt;Group&gt;">
					<g id="&lt;Group&gt;">
						<g id="&lt;Group&gt;">
							<g id="&lt;Group&gt;">
							</g>
							<g id="&lt;Group&gt;">
							</g>
						</g>
						<g id="&lt;Group&gt;">
						</g>
						<g id="&lt;Group&gt;">
							<g id="&lt;Group&gt;">
							</g>
							<g id="&lt;Group&gt;">
							</g>
						</g>
						<g id="&lt;Group&gt;">
						</g>
					</g>
					<g id="&lt;Group&gt;">
					</g>
				</g>
				<g id="&lt;Group&gt;">
				</g>
				<g id="&lt;Group&gt;">
				</g>
			</g>
			<g id="&lt;Group&gt;">
			</g>
			<g id="&lt;Group&gt;">
				<g id="&lt;Group&gt;">
					<path id="&lt;Path&gt;" class="s12" d="m615.8 391.4v25.4"/>
					<g id="&lt;Group&gt;">
						<path id="&lt;Path&gt;" class="s13" d="m628.8 389.7c0 7-5.9 12.7-13 12.7-7.2 0-13.1-5.7-13.1-12.7 0-7.1 5.9-12.8 13.1-12.8 7.1 0 13 5.7 13 12.8z"/>
					</g>
					<g id="&lt;Group&gt;">
						<path id="&lt;Path&gt;" class="s13" d="m628.8 434.2c0 7.1-5.9 12.8-13 12.8-7.2 0-13.1-5.7-13.1-12.8 0-7 5.9-12.7 13.1-12.7 7.1 0 13 5.7 13 12.7z"/>
					</g>
					<g id="&lt;Group&gt;">
						<path id="&lt;Path&gt;" class="s14" d="m614.7 394.7l-6-7.6 5.5 2.2 12.5-10.7z"/>
					</g>
					<g id="&lt;Group&gt;">
						<path id="&lt;Path&gt;" class="s14" d="m614.7 439.7l-6-7.5 5.5 2.2 12.5-10.7z"/>
					</g>
				</g>
				<path id="&lt;Path&gt;" class="s15" d="m786.5 408.4h-150.1v-13.7h150.1z"/>
				<path id="&lt;Path&gt;" class="s15" d="m734.5 452.5h-98.1v-13.8h98.1z"/>
				<path id="&lt;Path&gt;" class="s13" d="m722.2 388.2h-85.8v-7h85.8z"/>
				<path id="&lt;Path&gt;" class="s13" d="m689.6 431.9h-53.2v-7h53.2z"/>
			</g>
			<g id="&lt;Group&gt;">
			</g>
			<g id="&lt;Group&gt;">
			</g>
			<g id="&lt;Group&gt;">
			</g>
			<g id="&lt;Group&gt;">
			</g>
			<g id="&lt;Group&gt;">
				<g id="&lt;Group&gt;">
				</g>
			</g>
		</g>
	</g>
	<g id="DESIGNED BY FREEPIK">
		<g id="&lt;Group&gt;">
			<g id="&lt;Group&gt;">
				<g id="&lt;Group&gt;">
				</g>
			</g>
			<g id="&lt;Group&gt;">
			</g>
		</g>
	</g>
</svg>